<svg xmlns="http://www.w3.org/2000/svg" viewBox="0 0 194.49 85.04"><defs><style>.cls-1{fill:#fff;}.cls-2{fill:#e0071b;}</style></defs><title>AC_Milan_Logo</title><g id="Isolation_Mode" data-name="Isolation Mode"><path d="M85.73,15.06h3.4v9.68a16.63,16.63,0,0,1-5.48.91c-4.87,0-7.11-2.24-7.11-8.73,0-4.75,1.56-8.73,7.28-8.73a15.55,15.55,0,0,1,4.51.63v1.42h-.67a3.15,3.15,0,0,0-2.75-1c-3.07,0-4.59,1.18-5,4.46a25.07,25.07,0,0,0-.17,3.26,12.78,12.78,0,0,0,.65,4.8,4,4,0,0,0,3.91,2.83,7,7,0,0,0,2-.29V16.2a.53.53,0,0,0-.53-.61Z"/><path d="M93.13,8.48h3.4V24.13h4.64a1.89,1.89,0,0,0,2-1.44h1.33l-.61,2.67H93.66V9.61a.53.53,0,0,0-.53-.6Z"/><path d="M105.51,16.92c0-6,2.22-8.73,7-8.73s7,2.7,7,8.73-2.22,8.73-7,8.73S105.51,23,105.51,16.92Zm3.18,0c0,6.13,1.45,7.63,3.86,7.63s3.86-1.5,3.86-7.63S115,9.3,112.55,9.3,108.69,10.79,108.69,16.92Z"/><path d="M123.17,25.36V9.61a.53.53,0,0,0-.53-.6V8.48h6.17c3.55,0,5.05,1.13,5.05,3.81,0,2.07-1,3.38-3,3.52v.07a4.35,4.35,0,0,1,4.1,4.47A4.76,4.76,0,0,1,133,24.57a5.93,5.93,0,0,1-3.12.79Zm2.87-1.3h2.32c1.8,0,3.44-1.18,3.44-4a3.49,3.49,0,0,0-3.28-3.64H128v-.82h.57c1.55,0,2.37-1.47,2.37-3,0-2-.53-2.75-2.29-2.75H126Z"/><path d="M138.61,25.36h-2.25L143,8.48h2.19l6.08,15.8c.15.36.32.55.7.55v.53H148.4l-5.06-13.72L140,20h4.71l.43,1.19H139.5l-1.18,3a.65.65,0,0,0-.07.29.32.32,0,0,0,.36.33Z"/><path d="M153.71,8.48h3.4V24.13h4.63a1.9,1.9,0,0,0,2-1.44H165l-.6,2.67H154.24V9.61a.53.53,0,0,0-.53-.6Z"/><path d="M76.83,34.19h6.32c3.54,0,5.11,1.57,5.11,4.63,0,2.41-1.16,4.68-4.54,4.68h-.86v-.72c1.59,0,2.34-1,2.34-4,0-2-.58-3.31-2.34-3.31H80.23V51.08H77.36V35.32a.53.53,0,0,0-.53-.6Z"/><path d="M91.57,51.08H89.32L96,34.19h2.19L104.23,50c.15.36.31.56.7.56v.53h-3.57L96.29,37.35,92.94,45.7h4.7l.44,1.18H92.46l-1.18,3a.75.75,0,0,0-.08.29.33.33,0,0,0,.37.34Z"/><path d="M106.72,51.08l3.71-6.59-4.68-9.43a.59.59,0,0,0-.6-.34v-.53h3.47l3.55,7.26,4.1-7.26H118l-9.56,16.89Z"/><path d="M133.25,34.19h4.22v.53a.53.53,0,0,0-.53.6V49.94a.55.55,0,0,0,.53.61v.53h-3.4V36.24l-5.33,14.84h-1.33L121.5,37V50a.5.5,0,0,0,.53.51v.53h-2V35.32a.53.53,0,0,0-.53-.6v-.53h4l5.33,12.71Z"/><path d="M150.38,34.19v1.3h-6v5.38h3.88v1.21h-3.88v7.69h6.59v1.31h-9.46V35.32a.53.53,0,0,0-.53-.6v-.53Z"/><path d="M166.86,51.08h-2.34l-9.1-13V50a.5.5,0,0,0,.53.51v.53h-2V35.32a.53.53,0,0,0-.53-.6v-.53h2.87l9.1,12.88V35.23a.5.5,0,0,0-.53-.51v-.53h2Z"/><path d="M176.53,51.08h-2.87V35.49h-3.18c-.39,0-.58.2-.58.46h-.68V34.19H181V36h-.67c0-.26-.2-.46-.58-.46h-3.19Z"/><path d="M86.33,61.39h-.68c-.19-.68-1.56-1-3-1S79,61,79,63.29a2.25,2.25,0,0,0,1.52,2.25l3.11,1c2.24.75,3.79,2.08,3.79,4.49,0,3.67-2.42,5.79-6.11,5.79A12.83,12.83,0,0,1,77,76.22V74.8a14,14,0,0,0,4.27.72,3.15,3.15,0,0,0,3.38-3.13,3.1,3.1,0,0,0-2.36-3l-2.87-.94a4.2,4.2,0,0,1-3.12-4.2c0-3.6,3.16-4.83,5.89-4.83a14.33,14.33,0,0,1,4.15.58Z"/><path d="M192.78,35.9h-.67c-.19-.67-1.57-1-3-1-1.62,0-3.67.58-3.67,2.9a2.24,2.24,0,0,0,1.52,2.24l3.11,1c2.25.75,3.79,2.07,3.79,4.49,0,3.66-2.41,5.79-6.1,5.79a13,13,0,0,1-4.27-.63V49.32a14.26,14.26,0,0,0,4.27.72,3.15,3.15,0,0,0,3.37-3.14,3.11,3.11,0,0,0-2.36-3l-2.87-.94a4.2,4.2,0,0,1-3.11-4.19c0-3.6,3.16-4.83,5.88-4.83a14.23,14.23,0,0,1,4.15.58Z"/><path d="M89.8,68.12c0-6,2.22-8.74,7-8.74s7,2.71,7,8.74-2.22,8.73-7,8.73S89.8,74.15,89.8,68.12Zm3.19,0c0,6.13,1.45,7.62,3.86,7.62s3.86-1.49,3.86-7.62-1.45-7.63-3.86-7.63S93,62,93,68.12Z"/><path d="M106.93,59.67h3.4V75.33H115a1.89,1.89,0,0,0,2-1.45h1.33l-.61,2.68H107.46V60.81a.53.53,0,0,0-.53-.61Z"/><path d="M119.74,59.67h3.4V71.54c0,2.9,1.64,4,3.67,4a8.77,8.77,0,0,0,4.49-1.15V60.81a.56.56,0,0,0-.53-.61v-.53h2V75.23a11.81,11.81,0,0,1-6,1.55c-3.55,0-6.52-1-6.52-4.87V60.81a.53.53,0,0,0-.53-.61Z"/><path d="M142.44,76.56h-2.87V61h-3.18c-.39,0-.58.19-.58.46h-.68V59.67h11.75v1.77h-.67c0-.27-.2-.46-.58-.46h-3.19Z"/><path d="M148.72,59.67h3.4V76.56h-2.87V60.81a.53.53,0,0,0-.53-.61Z"/><path d="M155.69,68.12c0-6,2.22-8.74,7-8.74s7.05,2.71,7.05,8.74-2.22,8.73-7.05,8.73S155.69,74.15,155.69,68.12Zm3.18,0c0,6.13,1.45,7.62,3.86,7.62s3.86-1.49,3.86-7.62-1.45-7.63-3.86-7.63S158.87,62,158.87,68.12Z"/><path d="M186.25,76.56h-2.34l-9.09-13v12a.5.5,0,0,0,.53.51v.53h-2V60.81a.53.53,0,0,0-.53-.61v-.53h2.87l9.09,12.89V60.71a.5.5,0,0,0-.53-.51v-.53h2Z"/><path d="M-.67,42.53C-.66,19.17,11,.06,25.77,0S52.19,19.17,52.21,42.53,40.55,85,25.77,85-.66,65.87-.67,42.53"/><path class="cls-1" d="M27.76,68.08a1.14,1.14,0,0,0-1.13,1.28A1.16,1.16,0,0,0,28,70.54a1.1,1.1,0,0,0,1-1.27c-.07-.8-.49-1.26-1.27-1.19m0,0a1.14,1.14,0,0,0-1.13,1.28A1.16,1.16,0,0,0,28,70.54a1.1,1.1,0,0,0,1-1.27c-.07-.8-.49-1.26-1.27-1.19m7.55-.34a1.11,1.11,0,0,0-1.52-.84A1.13,1.13,0,0,0,33,68.41a1.15,1.15,0,0,0,1.62.81,1.09,1.09,0,0,0,.68-1.48m0,0a1.11,1.11,0,0,0-1.52-.84A1.13,1.13,0,0,0,33,68.41a1.15,1.15,0,0,0,1.62.81,1.09,1.09,0,0,0,.68-1.48m-14,2.83a1.11,1.11,0,0,0-1.38.86,1.15,1.15,0,0,0,1,1.33,1.11,1.11,0,0,0,1.33-.89,1.09,1.09,0,0,0-1-1.3m.56-2.77c-.67-.12-1.15.17-1.24.68a1,1,0,0,0,.89,1,.91.91,0,0,0,1.14-.69.92.92,0,0,0-.79-1m0,0c-.67-.12-1.15.17-1.24.68a1,1,0,0,0,.89,1,.91.91,0,0,0,1.14-.69.92.92,0,0,0-.79-1m-.56,2.77a1.11,1.11,0,0,0-1.38.86,1.15,1.15,0,0,0,1,1.33,1.11,1.11,0,0,0,1.33-.89,1.09,1.09,0,0,0-1-1.3M27,45.8V64.09a21.49,21.49,0,0,0,5.15-.94V45.82Zm0-24.86V38.52h5.15V21.89A22.33,22.33,0,0,0,27,20.94M40.17,26.4V38.52H47A21.52,21.52,0,0,0,40.17,26.4m0,19.41V58.64a21.53,21.53,0,0,0,7-12.83ZM17.86,12l-2.13,4.4,3.09-1.23Zm0,0-2.13,4.4,3.09-1.23ZM40.8,16.16c-3.86-6.74-9.18-10.88-15-10.88h0c-5.83,0-11.15,4.15-15,10.88A47.65,47.65,0,0,0,5.46,31.52,23,23,0,0,1,32.11,20.33v0l.08,0A23.12,23.12,0,0,1,46.07,31.53,47.71,47.71,0,0,0,40.8,16.16m-21,2.27-.56-1.88-4.45,1.77-1.44,2.95A22.18,22.18,0,0,0,11.05,23l5.8-12L18.7,9.72l2.52,8.38c-.47.09-.95.2-1.42.33m6.37-.73a5.13,5.13,0,1,1,3.77-8.61l-1.1,1a3.63,3.63,0,1,0,0,4.92L30,16a5.1,5.1,0,0,1-3.78,1.66m12.1,3.62-1.63-5.53L35.1,19.61l-.77-.33-1.1-5.73-1.49,4.88c-.47-.12-.95-.24-1.42-.34l2.55-8.37,1.23.82,1.06,5,1.26-3.15.89.71,2.82,9.52c-.6-.48-1.22-.91-1.86-1.33M15.73,16.37l3.09-1.23-1-3.17ZM17.86,12l-2.13,4.4,3.09-1.23Zm0,0-2.13,4.4,3.09-1.23Zm3.4,58.6a1.11,1.11,0,0,0-1.38.86,1.15,1.15,0,0,0,1,1.33,1.11,1.11,0,0,0,1.33-.89,1.09,1.09,0,0,0-1-1.3m.56-2.77c-.67-.12-1.15.17-1.24.68a1,1,0,0,0,.89,1,.91.91,0,0,0,1.14-.69.92.92,0,0,0-.79-1m0,0c-.67-.12-1.15.17-1.24.68a1,1,0,0,0,.89,1,.91.91,0,0,0,1.14-.69.92.92,0,0,0-.79-1m-.56,2.77a1.11,1.11,0,0,0-1.38.86,1.15,1.15,0,0,0,1,1.33,1.11,1.11,0,0,0,1.33-.89,1.09,1.09,0,0,0-1-1.3m0,0a1.11,1.11,0,0,0-1.38.86,1.15,1.15,0,0,0,1,1.33,1.11,1.11,0,0,0,1.33-.89,1.09,1.09,0,0,0-1-1.3m.56-2.77c-.67-.12-1.15.17-1.24.68a1,1,0,0,0,.89,1,.91.91,0,0,0,1.14-.69.92.92,0,0,0-.79-1m5.94.28a1.14,1.14,0,0,0-1.13,1.28A1.16,1.16,0,0,0,28,70.54a1.1,1.1,0,0,0,1-1.27c-.07-.8-.49-1.26-1.27-1.19m7.55-.34a1.11,1.11,0,0,0-1.52-.84A1.13,1.13,0,0,0,33,68.41a1.15,1.15,0,0,0,1.62.81,1.09,1.09,0,0,0,.68-1.48m0,0a1.11,1.11,0,0,0-1.52-.84A1.13,1.13,0,0,0,33,68.41a1.15,1.15,0,0,0,1.62.81,1.09,1.09,0,0,0,.68-1.48m-7.55.34a1.14,1.14,0,0,0-1.13,1.28A1.16,1.16,0,0,0,28,70.54a1.1,1.1,0,0,0,1-1.27c-.07-.8-.49-1.26-1.27-1.19m-5.94-.28c-.67-.12-1.15.17-1.24.68a1,1,0,0,0,.89,1,.91.91,0,0,0,1.14-.69.92.92,0,0,0-.79-1m-.56,2.77a1.11,1.11,0,0,0-1.38.86,1.15,1.15,0,0,0,1,1.33,1.11,1.11,0,0,0,1.33-.89,1.09,1.09,0,0,0-1-1.3m0,0a1.11,1.11,0,0,0-1.38.86,1.15,1.15,0,0,0,1,1.33,1.11,1.11,0,0,0,1.33-.89,1.09,1.09,0,0,0-1-1.3m.56-2.77c-.67-.12-1.15.17-1.24.68a1,1,0,0,0,.89,1,.91.91,0,0,0,1.14-.69.92.92,0,0,0-.79-1m5.94.28a1.14,1.14,0,0,0-1.13,1.28A1.16,1.16,0,0,0,28,70.54a1.1,1.1,0,0,0,1-1.27c-.07-.8-.49-1.26-1.27-1.19m7.55-.34a1.11,1.11,0,0,0-1.52-.84A1.13,1.13,0,0,0,33,68.41a1.15,1.15,0,0,0,1.62.81,1.09,1.09,0,0,0,.68-1.48m0,0a1.11,1.11,0,0,0-1.52-.84A1.13,1.13,0,0,0,33,68.41a1.15,1.15,0,0,0,1.62.81,1.09,1.09,0,0,0,.68-1.48m-7.55.34a1.14,1.14,0,0,0-1.13,1.28A1.16,1.16,0,0,0,28,70.54a1.1,1.1,0,0,0,1-1.27c-.07-.8-.49-1.26-1.27-1.19m-5.94-.28c-.67-.12-1.15.17-1.24.68a1,1,0,0,0,.89,1,.91.91,0,0,0,1.14-.69.92.92,0,0,0-.79-1m-.56,2.77a1.11,1.11,0,0,0-1.38.86,1.15,1.15,0,0,0,1,1.33,1.11,1.11,0,0,0,1.33-.89,1.09,1.09,0,0,0-1-1.3m4.51-5A23.09,23.09,0,0,1,5.47,53.54a47.87,47.87,0,0,0,5.28,15.34c3.86,6.72,9.18,10.85,15,10.85h.12c5.78,0,11.06-4.16,14.91-10.85a48.11,48.11,0,0,0,5.27-15.34,23.08,23.08,0,0,1-20.3,12.07m-9.92,6.75-1.45-.49,1.52-4.46a2.33,2.33,0,0,1-1.58-.13l-.28-.09.15-.41h0l.29-.83.21.07a1.75,1.75,0,0,0,2.07-.65l1.32.45ZM24,68.94a1.45,1.45,0,0,1-1.13,1.24,1.71,1.71,0,0,1,.85,1.89,2.35,2.35,0,0,1-3,1.78c-2-.35-2.42-1.64-2.26-2.59a1.78,1.78,0,0,1,1.46-1.57,1.42,1.42,0,0,1-.68-1.51c.21-1.19,1.37-1.72,2.69-1.49C23.49,67,24.18,68,24,68.94m4.18,5.19a2.23,2.23,0,0,1-2.46-1.31l1.07-.41v0a1.11,1.11,0,0,0,1.32.59c.6-.13,1.2-.57,1.1-2h0a1.76,1.76,0,0,1-1.41.7,2.16,2.16,0,0,1-2.51-2,2.36,2.36,0,0,1,2.41-2.74c2.66-.21,2.92,2.39,3,3.38.22,2.7-1.1,3.69-2.49,3.81m7.49-1.48A2.21,2.21,0,0,1,33,72l1-.66v0a1.11,1.11,0,0,0,1.4.26c.56-.28,1-.86.56-2.26l0,0a1.76,1.76,0,0,1-1.19,1,2.17,2.17,0,0,1-2.92-1.31,2.36,2.36,0,0,1,1.67-3.24c2.53-.87,3.41,1.6,3.74,2.53.88,2.57-.17,3.86-1.49,4.3M33.79,66.9A1.13,1.13,0,0,0,33,68.41a1.15,1.15,0,0,0,1.62.81,1.09,1.09,0,0,0,.68-1.48,1.11,1.11,0,0,0-1.52-.84m-6,1.18a1.14,1.14,0,0,0-1.13,1.28A1.16,1.16,0,0,0,28,70.54a1.1,1.1,0,0,0,1-1.27c-.07-.8-.49-1.26-1.27-1.19m-5.94-.28c-.67-.12-1.15.17-1.24.68a1,1,0,0,0,.89,1,.91.91,0,0,0,1.14-.69.92.92,0,0,0-.79-1m-.56,2.77a1.11,1.11,0,0,0-1.38.86,1.15,1.15,0,0,0,1,1.33,1.11,1.11,0,0,0,1.33-.89,1.09,1.09,0,0,0-1-1.3m0,0a1.11,1.11,0,0,0-1.38.86,1.15,1.15,0,0,0,1,1.33,1.11,1.11,0,0,0,1.33-.89,1.09,1.09,0,0,0-1-1.3m.56-2.77c-.67-.12-1.15.17-1.24.68a1,1,0,0,0,.89,1,.91.91,0,0,0,1.14-.69.92.92,0,0,0-.79-1m5.94.28a1.14,1.14,0,0,0-1.13,1.28A1.16,1.16,0,0,0,28,70.54a1.1,1.1,0,0,0,1-1.27c-.07-.8-.49-1.26-1.27-1.19m7.55-.34a1.11,1.11,0,0,0-1.52-.84A1.13,1.13,0,0,0,33,68.41a1.15,1.15,0,0,0,1.62.81,1.09,1.09,0,0,0,.68-1.48m0,0a1.11,1.11,0,0,0-1.52-.84A1.13,1.13,0,0,0,33,68.41a1.15,1.15,0,0,0,1.62.81,1.09,1.09,0,0,0,.68-1.48m-7.55.34a1.14,1.14,0,0,0-1.13,1.28A1.16,1.16,0,0,0,28,70.54a1.1,1.1,0,0,0,1-1.27c-.07-.8-.49-1.26-1.27-1.19m-5.94-.28c-.67-.12-1.15.17-1.24.68a1,1,0,0,0,.89,1,.91.91,0,0,0,1.14-.69.92.92,0,0,0-.79-1m-.56,2.77a1.11,1.11,0,0,0-1.38.86,1.15,1.15,0,0,0,1,1.33,1.11,1.11,0,0,0,1.33-.89,1.09,1.09,0,0,0-1-1.3m0,0a1.11,1.11,0,0,0-1.38.86,1.15,1.15,0,0,0,1,1.33,1.11,1.11,0,0,0,1.33-.89,1.09,1.09,0,0,0-1-1.3m.56-2.77c-.67-.12-1.15.17-1.24.68a1,1,0,0,0,.89,1,.91.91,0,0,0,1.14-.69.92.92,0,0,0-.79-1m5.94.28a1.14,1.14,0,0,0-1.13,1.28A1.16,1.16,0,0,0,28,70.54a1.1,1.1,0,0,0,1-1.27c-.07-.8-.49-1.26-1.27-1.19m0,0a1.14,1.14,0,0,0-1.13,1.28A1.16,1.16,0,0,0,28,70.54a1.1,1.1,0,0,0,1-1.27c-.07-.8-.49-1.26-1.27-1.19m-5.94-.28c-.67-.12-1.15.17-1.24.68a1,1,0,0,0,.89,1,.91.91,0,0,0,1.14-.69.92.92,0,0,0-.79-1m-.56,2.77a1.11,1.11,0,0,0-1.38.86,1.15,1.15,0,0,0,1,1.33,1.11,1.11,0,0,0,1.33-.89,1.09,1.09,0,0,0-1-1.3"/><path class="cls-2" d="M43.8,13C39.14,5.43,32.75.85,25.77.86S12.4,5.43,7.74,13,.18,31,.19,42.53s2.89,22,7.55,29.53,11,12.12,18,12.11,13.37-4.58,18-12.11,7.56-18,7.55-29.53S48.46,20.52,43.8,13m-18,68.81C12.69,81.71,2.47,64.07,2.45,42.53S12.69,3.33,25.77,3.26,49.08,21,49.09,42.53,38.86,81.71,25.77,81.78M27,44.66v-5h6.3V22.26A21.23,21.23,0,0,1,39,25.47V39.66H47.2a22.54,22.54,0,0,1,.21,2.87c0,.71,0,1.43-.12,2.13H39v14.9a21.11,21.11,0,0,1-5.76,3.22V44.67Zm-4-23.56V63.94a21.75,21.75,0,0,1-4-.92V22a21.75,21.75,0,0,1,4-.92m-8.07,2.76v37.3a21.76,21.76,0,0,1-4-3V26.9a22.73,22.73,0,0,1,4-3M4.15,42.53A21.55,21.55,0,0,1,6.79,32.14V52.89A21.49,21.49,0,0,1,4.15,42.53"/><rect x="67.05" y="8.5" width="1.49" height="68.03"/></g></svg>