<?xml version="1.0" encoding="utf-8"?>
<!-- Generator: Adobe Illustrator 24.1.3, SVG Export Plug-In . SVG Version: 6.00 Build 0)  -->
<svg version="1.1" xmlns="http://www.w3.org/2000/svg" xmlns:xlink="http://www.w3.org/1999/xlink" x="0px" y="0px"
	 viewBox="0 0 259.9 176.3" style="enable-background:new 0 0 259.9 176.3;" xml:space="preserve">
<style type="text/css">
	.st0{fill:#231F20;}
</style>
<g id="Livello_1">
</g>
<g id="Layer_1">
</g>
<g id="Isolation_Mode">
	<path class="st0" d="M119.1,60.7h3.4v9.7c-1.6,0.6-3.4,0.9-5.5,0.9c-4.9,0-7.1-2.2-7.1-8.7c0-4.8,1.6-8.7,7.3-8.7
		c1.7,0,2.9,0.2,4.5,0.6v1.4H121c-0.4-0.7-1.5-1-2.8-1c-3.1,0-4.6,1.2-5,4.5c-0.1,0.9-0.2,2-0.2,3.3c0,2,0.1,3.6,0.7,4.8
		c0.9,2.2,2.4,2.8,3.9,2.8c0.7,0,1.4-0.1,2-0.3v-8.1c0-0.4-0.2-0.6-0.5-0.6V60.7z"/>
	<path class="st0" d="M126.5,54.1h3.4v15.7h4.6c0.7,0,1.7-0.4,2-1.4h1.3l-0.6,2.7H127V55.3c0-0.4-0.2-0.6-0.5-0.6V54.1z"/>
	<path class="st0" d="M138.9,62.6c0-6,2.2-8.7,7-8.7s7,2.7,7,8.7c0,6-2.2,8.7-7,8.7S138.9,68.6,138.9,62.6z M142.1,62.6
		c0,6.1,1.4,7.6,3.9,7.6s3.9-1.5,3.9-7.6s-1.4-7.6-3.9-7.6S142.1,56.4,142.1,62.6z"/>
	<path class="st0" d="M156.5,71V55.3c0-0.4-0.2-0.6-0.5-0.6v-0.5h6.2c3.5,0,5,1.1,5,3.8c0,2.1-0.9,3.4-3,3.5v0.1
		c2.6,0.1,4.1,2.3,4.1,4.5c0,2.1-0.7,3.4-1.9,4.2c-0.8,0.5-2,0.8-3.1,0.8H156.5z M159.4,69.7h2.3c1.8,0,3.4-1.2,3.4-4
		c0-1.6-1.2-3.6-3.3-3.6h-0.6v-0.8h0.6c1.5,0,2.4-1.5,2.4-3c0-2-0.5-2.8-2.3-2.8h-2.6V69.7z"/>
	<path class="st0" d="M172,71h-2.2l6.6-16.9h2.2l6.1,15.8c0.1,0.4,0.3,0.6,0.7,0.6V71h-3.6l-5.1-13.7l-3.4,8.3h4.7l0.4,1.2h-5.6
		l-1.2,3c0,0.1-0.1,0.2-0.1,0.3c0,0.2,0.1,0.3,0.4,0.3V71z"/>
	<path class="st0" d="M187.1,54.1h3.4v15.7h4.6c0.7,0,1.7-0.4,2-1.4h1.3l-0.6,2.7h-10.2V55.3c0-0.4-0.2-0.6-0.5-0.6V54.1z"/>
	<path class="st0" d="M110.2,79.8h6.3c3.5,0,5.1,1.6,5.1,4.6c0,2.4-1.2,4.7-4.5,4.7h-0.9v-0.7c1.6,0,2.3-1,2.3-4
		c0-2-0.6-3.3-2.3-3.3h-2.6v15.6h-2.9V81c0-0.4-0.2-0.6-0.5-0.6V79.8z"/>
	<path class="st0" d="M124.9,96.7h-2.2l6.6-16.9h2.2l6.1,15.8c0.1,0.4,0.3,0.6,0.7,0.6v0.5h-3.6L129.7,83l-3.4,8.3h4.7l0.4,1.2h-5.6
		l-1.2,3c0,0.1-0.1,0.2-0.1,0.3c0,0.2,0.1,0.3,0.4,0.3V96.7z"/>
	<path class="st0" d="M140.1,96.7l3.7-6.6l-4.7-9.4c-0.2-0.3-0.4-0.3-0.6-0.3v-0.5h3.5l3.5,7.3l4.1-7.3h1.7l-9.6,16.9H140.1z"/>
	<path class="st0" d="M166.6,79.8h4.2v0.5c-0.3,0-0.5,0.2-0.5,0.6v14.6c0,0.4,0.3,0.6,0.5,0.6v0.5h-3.4V81.9l-5.3,14.8h-1.3
		l-5.9-14.1v13c0,0.4,0.3,0.5,0.5,0.5v0.5h-2V81c0-0.4-0.2-0.6-0.5-0.6v-0.5h4l5.3,12.7L166.6,79.8z"/>
	<path class="st0" d="M183.7,79.8v1.3h-6v5.4h3.9v1.2h-3.9v7.7h6.6v1.3h-9.5V81c0-0.4-0.2-0.6-0.5-0.6v-0.5H183.7z"/>
	<path class="st0" d="M200.2,96.7h-2.3l-9.1-13v12c0,0.4,0.3,0.5,0.5,0.5v0.5h-2V81c0-0.4-0.2-0.6-0.5-0.6v-0.5h2.9l9.1,12.9V80.9
		c0-0.4-0.3-0.5-0.5-0.5v-0.5h2V96.7z"/>
	<path class="st0" d="M209.9,96.7H207V81.1h-3.2c-0.4,0-0.6,0.2-0.6,0.5h-0.7v-1.8h11.7v1.8h-0.7c0-0.3-0.2-0.5-0.6-0.5h-3.2V96.7z"
		/>
	<path class="st0" d="M119.7,107H119c-0.2-0.7-1.6-1-3-1c-1.6,0-3.7,0.6-3.7,2.9c0,1.2,0.7,2,1.5,2.2l3.1,1c2.2,0.7,3.8,2.1,3.8,4.5
		c0,3.7-2.4,5.8-6.1,5.8c-1.8,0-2.8-0.2-4.3-0.6v-1.4c1.1,0.4,2.8,0.7,4.3,0.7c2,0,3.4-1.4,3.4-3.1c0-1.2-0.7-2.5-2.4-3l-2.9-0.9
		c-2-0.7-3.1-2.1-3.1-4.2c0-3.6,3.2-4.8,5.9-4.8c1.8,0,2.7,0.2,4.1,0.6V107z"/>
	<path class="st0" d="M226.1,81.6h-0.7c-0.2-0.7-1.6-1-3-1c-1.6,0-3.7,0.6-3.7,2.9c0,1.2,0.7,2,1.5,2.2l3.1,1
		c2.2,0.7,3.8,2.1,3.8,4.5c0,3.7-2.4,5.8-6.1,5.8c-1.8,0-2.8-0.2-4.3-0.6V95c1.1,0.4,2.8,0.7,4.3,0.7c2,0,3.4-1.4,3.4-3.1
		c0-1.2-0.7-2.5-2.4-3l-2.9-0.9c-2-0.7-3.1-2.1-3.1-4.2c0-3.6,3.2-4.8,5.9-4.8c1.8,0,2.7,0.2,4.1,0.6V81.6z"/>
	<path class="st0" d="M123.2,113.8c0-6,2.2-8.7,7-8.7c4.8,0,7,2.7,7,8.7c0,6-2.2,8.7-7,8.7C125.4,122.5,123.2,119.8,123.2,113.8z
		 M126.3,113.8c0,6.1,1.4,7.6,3.9,7.6c2.4,0,3.9-1.5,3.9-7.6s-1.4-7.6-3.9-7.6C127.8,106.1,126.3,107.6,126.3,113.8z"/>
	<path class="st0" d="M140.3,105.3h3.4V121h4.6c0.7,0,1.7-0.4,2-1.4h1.3l-0.6,2.7h-10.2v-15.8c0-0.4-0.2-0.6-0.5-0.6V105.3z"/>
	<path class="st0" d="M153.1,105.3h3.4v11.9c0,2.9,1.6,4,3.7,4c1.4,0,3.1-0.3,4.5-1.2v-13.6c0-0.4-0.3-0.6-0.5-0.6v-0.5h2v15.6
		c-1.3,0.9-3.7,1.5-6,1.5c-3.5,0-6.5-1-6.5-4.9v-11.1c0-0.4-0.2-0.6-0.5-0.6V105.3z"/>
	<path class="st0" d="M175.8,122.2h-2.9v-15.6h-3.2c-0.4,0-0.6,0.2-0.6,0.5h-0.7v-1.8h11.7v1.8h-0.7c0-0.3-0.2-0.5-0.6-0.5h-3.2
		V122.2z"/>
	<path class="st0" d="M182.1,105.3h3.4v16.9h-2.9v-15.8c0-0.4-0.2-0.6-0.5-0.6V105.3z"/>
	<path class="st0" d="M189,113.8c0-6,2.2-8.7,7-8.7s7,2.7,7,8.7c0,6-2.2,8.7-7,8.7S189,119.8,189,113.8z M192.2,113.8
		c0,6.1,1.4,7.6,3.9,7.6s3.9-1.5,3.9-7.6s-1.4-7.6-3.9-7.6S192.2,107.6,192.2,113.8z"/>
	<path class="st0" d="M219.6,122.2h-2.3l-9.1-13v12c0,0.4,0.3,0.5,0.5,0.5v0.5h-2v-15.8c0-0.4-0.2-0.6-0.5-0.6v-0.5h2.9l9.1,12.9
		v-11.8c0-0.4-0.3-0.5-0.5-0.5v-0.5h2V122.2z"/>
	<rect x="100.4" y="54.2" class="st0" width="1.5" height="68"/>
	<path class="st0" d="M59.1,129.8c-7,0-13.4-4.6-18-12.1c-4.7-7.5-7.6-18-7.5-29.5c0-11.6,2.9-22,7.5-29.5
		c4.7-7.5,11.1-12.1,18-12.1c7,0,13.4,4.6,18,12.1c4.7,7.5,7.6,18,7.6,29.5c0,11.5-2.9,22-7.6,29.5
		C72.5,125.2,66.1,129.8,59.1,129.8 M59.1,45.7c-14.8,0.1-26.4,19.2-26.4,42.5c0,23.3,11.7,42.4,26.4,42.5
		c14.8-0.1,26.4-19.2,26.4-42.5C85.5,64.8,73.9,45.7,59.1,45.7 M61.4,116.2c-0.6,0-1.3-0.1-1.4-1.2c-0.1-1,0.7-1.2,1.1-1.3
		c0.8-0.1,1.2,0.4,1.3,1.2C62.5,115.7,61.9,116.1,61.4,116.2 M64,116c-0.1-1-0.3-3.6-3-3.4c-1.5,0.1-2.6,1-2.4,2.7
		c0.1,1.2,1,2.1,2.5,2c0.5,0,1.1-0.2,1.4-0.7l0,0c0.1,1.5-0.5,1.9-1.1,2c-0.6,0.1-1.1-0.1-1.3-0.6v0l-1.1,0.4
		c0.3,0.9,1.3,1.4,2.5,1.3C62.9,119.7,64.3,118.7,64,116 M68,114.9c-0.5,0.2-1.3,0.2-1.6-0.8c-0.3-1,0.4-1.4,0.8-1.5
		c0.7-0.3,1.3,0.1,1.5,0.8C68.9,114.2,68.5,114.7,68,114.9 M70.5,114c-0.3-0.9-1.2-3.4-3.7-2.5c-1.4,0.5-2.2,1.6-1.7,3.2
		c0.4,1.1,1.5,1.8,2.9,1.3c0.5-0.2,1-0.5,1.2-1l0,0c0.5,1.4,0,2-0.6,2.3c-0.6,0.3-1.1,0.1-1.4-0.3v0l-0.9,0.7
		c0.5,0.8,1.6,1.1,2.7,0.7C70.4,117.9,71.4,116.6,70.5,114 M56,114.5c-0.1,0.5-0.5,0.8-1.1,0.7c-0.7-0.1-1-0.6-0.9-1
		c0.1-0.5,0.6-0.8,1.2-0.7C55.7,113.5,56.1,114,56,114.5 M55.6,117.5c-0.1,0.5-0.6,1-1.3,0.9c-0.7-0.1-1.1-0.7-1-1.3
		c0.1-0.8,0.8-1,1.4-0.9C55.4,116.4,55.7,117,55.6,117.5 M57.4,114.6c0.2-1-0.5-2-2.1-2.2c-1.3-0.2-2.5,0.3-2.7,1.5
		c-0.1,0.6,0.1,1.1,0.7,1.5c-1.2,0.3-1.4,1.2-1.5,1.6c-0.2,1,0.3,2.2,2.3,2.6c2,0.4,2.9-0.9,3-1.8c0.2-0.9-0.2-1.4-0.8-1.9
		C56.9,115.7,57.3,115.2,57.4,114.6 M50.1,111c-0.1,0.3-1,1-2.1,0.7l-0.2-0.1l-0.3,0.8l0,0l-0.1,0.4l0.3,0.1
		c0.7,0.3,1.2,0.3,1.6,0.1l-1.5,4.5l1.4,0.5l2.2-6.6L50.1,111z M70.7,58.8l-0.9-0.7l-1.3,3.2l-1.1-5l-1.2-0.8l-2.6,8.4
		c0.5,0.1,1,0.2,1.4,0.3l1.5-4.9l1.1,5.7c0.3,0.1,0.5,0.2,0.8,0.3l1.5-3.8l1.6,5.5c0.6,0.4,1.3,0.8,1.9,1.3L70.7,58.8z M62.2,60.7
		c-0.7,0.7-1.6,1.2-2.7,1.2c-2,0-3.6-1.6-3.6-3.6c0-2,1.6-3.6,3.6-3.6c1.1,0,2,0.4,2.7,1.2l1.1-1c-0.9-1-2.3-1.7-3.8-1.7
		c-2.8,0-5.1,2.3-5.1,5.1c0,2.8,2.3,5.1,5.1,5.1c1.5,0,2.8-0.6,3.8-1.7L62.2,60.7z M49.1,62l2.1-4.4l1,3.2L49.1,62z M52.1,55.4
		l-1.8,1.2l-5.8,12.1c0.7-0.6,1.5-1.2,2.3-1.7l1.4-2.9l4.5-1.8l0.6,1.9c0.5-0.1,0.9-0.2,1.4-0.3L52.1,55.4z M72,90v15.5
		c-1.5,1.2-3.2,2.1-5.1,2.8V90h-6.6v-4.3h6.6V68c1.8,0.7,3.5,1.7,5.1,2.8v14.8h8.6c0.1,0.8,0.2,1.7,0.2,2.5c0,0.6,0,1.2-0.1,1.8H72z
		 M73.5,104.3V91.5h7C79.7,96.5,77.2,101,73.5,104.3 M74.2,114.5c-3.8,6.7-9.1,10.8-14.9,10.9h-0.1c-5.8,0-11.2-4.1-15-10.9
		c-2.4-4.2-4.2-9.5-5.3-15.3c3.9,7.2,11.5,12.1,20.3,12.1c8.8,0,16.4-4.9,20.3-12.1C78.4,105,76.6,110.3,74.2,114.5 M40.1,77.8v20.7
		c-1.7-3.1-2.6-6.6-2.6-10.4C37.5,84.4,38.5,80.9,40.1,77.8 M48.2,69.5v37.3c-1.5-0.9-2.8-1.9-4-3V72.6
		C45.4,71.4,46.8,70.4,48.2,69.5 M56.3,66.7v42.8c-1.4-0.2-2.7-0.5-4-0.9v-41C53.5,67.2,54.9,66.9,56.3,66.7 M60.3,91.4l5.1,0
		l0,17.1v0.2c-1.6,0.5-3.4,0.9-5.1,0.9V91.4z M65.5,67.5v0.2l0,16.4h-5.1V66.6C62.1,66.7,63.8,67,65.5,67.5 M80.4,84.2h-6.9l0-12.1
		C77,75.2,79.5,79.4,80.4,84.2 M44.1,61.8c3.9-6.7,9.2-10.9,15-10.9v0c0,0,0,0,0,0c5.8,0,11.1,4.1,15,10.9c2.4,4.2,4.2,9.5,5.3,15.4
		c-2.9-5.4-7.9-9.5-13.9-11.2l-0.1,0v0c-2-0.6-4.1-0.9-6.3-0.9c-8.8,0-16.4,4.9-20.3,12.1C39.9,71.3,41.7,66,44.1,61.8 M59.1,48.9
		C46.1,49,35.8,66.6,35.8,88.2c0,21.5,10.2,39.2,23.3,39.3c13.1-0.1,23.3-17.7,23.3-39.3C82.4,66.6,72.2,49,59.1,48.9"/>
</g>
</svg>
