<?xml version="1.0" encoding="UTF-8"?>
<svg width="394px" height="62px" viewBox="0 0 394 62" version="1.1" xmlns="http://www.w3.org/2000/svg" xmlns:xlink="http://www.w3.org/1999/xlink">
    <title>Slice 1</title>
    <g id="Page-1" stroke="none" stroke-width="1" fill="none" fill-rule="evenodd">
        <g id="powered-by-paysafe" fill="#9B9B9B" fill-rule="nonzero">
            <path d="M353.9,15.08 C343.9,15.08 336.21,23.02 336.21,34.08 C336.21,45.39 343.51,52.62 355.16,52.62 C358.41,52.62 364.84,52.04 369.79,48.62 L366.66,41.62 C363.681391,43.3674466 360.302801,44.3179981 356.85,44.38 L356.07,44.38 L355.89,44.38 C355.65,44.38 355.41,44.38 355.17,44.3 L355.01,44.3 L354.44,44.2 L354.24,44.2 C354.05,44.2 353.86,44.1 353.68,44.05 L353.38,43.96 L352.99,43.81 C352.842543,43.7603699 352.69884,43.7002152 352.56,43.63 L352.43,43.57 C352.20601,43.4674765 351.98889,43.3505655 351.78,43.22 L351.78,43.22 C351.324014,42.9347093 350.901384,42.599289 350.52,42.22 L350.52,42.22 C350.36,42.07 350.22,41.91 350.08,41.75 L349.92,41.57 C349.837768,41.4709144 349.760988,41.3674281 349.69,41.26 C349.558591,41.0878731 349.438344,40.9075036 349.33,40.72 L349.33,40.72 C348.546426,39.3258958 348.08193,37.7753016 347.97,36.18 L371.25,36.18 L371.25,33.38 C371.25,22.88 363.91,15.18 353.94,15.18 M347.94,30.28 C348.36,25.5 350.82,23.05 353.94,23.05 C357.06,23.05 359.49,25.5 359.94,30.28 L347.94,30.28 Z M84.05,49.36 C85.244742,49.3349606 86.3922413,48.8887108 87.29,48.1 L87.29,49.1 L91,49.1 L91,32 L87.29,33 L87.29,37.51 C86.5843478,37.0680014 85.7620546,36.848491 84.93,36.88 C81.34,36.88 79.17,39.8 79.17,43.38 C79.17,46.55 80.89,49.38 84.05,49.38 M85.68,39.47 C86.2465255,39.4784264 86.8012076,39.6334617 87.29,39.92 L87.29,46.15 C86.7727017,46.4803847 86.1737262,46.6604236 85.56,46.67 C84.19,46.67 83.04,45.57 83.04,43.23 C83.04,40.89 84.14,39.47 85.68,39.47 M72.5,49.36 C74.2165503,49.3794423 75.9028561,48.9075543 77.36,48 L76.36,45.69 C75.3691211,46.2673325 74.2466385,46.5806635 73.1,46.6 L72.78,46.6 L72.54,46.6 L72.54,46.6 L72.35,46.6 L72.28,46.6 L72.09,46.6 L72,46.6 L71.86,46.6 L71.72,46.53 L71.72,46.53 L71.5,46.41 L71.5,46.41 C71.3479629,46.3162485 71.2070607,46.2055396 71.08,46.08 L71.08,46.08 C71.0281374,46.0314466 70.9812393,45.9778488 70.94,45.92 L70.88,45.86 L70.81,45.76 L70.69,45.58 L70.69,45.58 C70.4344741,45.1143328 70.2810703,44.5995778 70.24,44.07 L77.98,44.07 L77.98,43.14 C78.0681584,41.5612721 77.5011716,40.0160971 76.4128263,38.8690757 C75.3244809,37.7220544 73.8111789,37.0747858 72.23,37.0799687 C68.91,37.0799687 66.35,39.72 66.35,43.39 C66.35,47.06 68.77,49.56 72.65,49.56 M72.08,39.5 C73.08,39.5 73.92,40.32 74.08,41.91 L70.08,41.91 C70.22,40.32 71.08,39.5 72.08,39.5 M114.08,52.42 L117.63,52.42 L123.63,37.16 L119.9,37.16 L117.33,44.28 L114.33,37.16 L110.51,37.16 L115.51,48.52 L114.08,52.42 Z M61.66,41.37 C62.3939059,40.70839 63.3520833,40.3508611 64.34,40.37 C64.6529951,40.3494098 64.9670049,40.3494098 65.28,40.37 L65.28,36.88 C63.6491996,36.9207312 62.1782671,37.8704671 61.47,39.34 L61.47,37.16 L57.92,37.16 L57.92,49.08 L61.66,49.08 L61.66,41.37 Z M385.81,38 C381.772799,38 378.5,41.2727985 378.5,45.31 C378.5,49.3472015 381.772799,52.62 385.81,52.62 C389.847202,52.62 393.12,49.3472015 393.12,45.31 C393.12,41.2727985 389.847202,38 385.81,38 M385.81,29.73 C389.847202,29.73 393.12,26.4572015 393.12,22.42 C393.12,18.3827985 389.847202,15.11 385.81,15.11 C381.772799,15.11 378.5,18.3827985 378.5,22.42 C378.5,26.4572015 381.772799,29.73 385.81,29.73 M110.68,42.51 C110.68,39.03 108.68,36.88 105.99,36.88 C104.741593,36.878793 103.542467,37.3670602 102.65,38.24 L102.65,32 L98.91,33 L98.91,48.82 C100.244318,49.1757455 101.619076,49.3572539 103,49.36 C107.34,49.36 110.68,47.04 110.68,42.51 M102.68,40.27 C103.235007,39.8773035 103.890857,39.6517465 104.57,39.62 C105.57,39.62 106.76,40.36 106.76,42.84 C106.76,45.5 105.43,46.6700613 103.76,46.6700613 C103.394741,46.672334 103.032126,46.6079445 102.69,46.48 L102.68,40.27 Z M3.83,43.19 L6.19,43.19 C9.29,43.19 11.62,41.25 11.62,37.96 C11.62,35.11 9.87,32.96 6.19,32.96 L-8.27187208e-11,32.96 L-8.27187208e-11,49.08 L3.83,49.08 L3.83,43.19 Z M3.83,35.76 L5.77,35.76 C6.37910316,35.7410099 6.96615765,35.9888128 7.37742121,36.4385122 C7.78868477,36.8882116 7.98319059,37.4950121 7.91,38.1 C8.00054738,38.7038573 7.81028049,39.3159974 7.39337377,39.7621266 C6.97646704,40.2082557 6.37859908,40.4394936 5.77,40.39 L3.83,40.39 L3.83,35.76 Z M233.49,15.92 L225.77,37.33 L216.9,15.92 L205.4,15.92 L220.55,50.06 L215.82,61.8 L226.51,61.8 L244.65,15.92 L233.49,15.92 Z M256.2,26 C256.2,24.31 257.89,23.26 260.7,23.26 C263.564516,23.3767551 266.37802,24.0563452 268.98,25.26 L272.14,18 C268.402143,16.1645528 264.30374,15.1809362 260.14,15.12 C251.78,15.12 245.04,18.91 245.04,26.5 C245.04,38.44 261.89,36.26 261.89,41.5 C261.89,43.5 259.89,44.5 256.63,44.5 C253.443945,44.4119865 250.320528,43.594356 247.5,42.11 L243.92,49.35 C248.150722,51.5371484 252.847411,52.6692941 257.61,52.6502425 C265.75,52.6502425 272.77,48.44 272.77,40.71 C272.77,28.91 256.2,30.87 256.2,26.1 M156.6,3.27 L138,3.27 L138,51.75 L149.51,51.75 L149.51,34 L156.6,34 C165.94,34 173,28.22 173,18.31 C173,9.74 167.73,3.31 156.64,3.31 M155.34,25.61 L149.51,25.61 L149.51,11.71 L155.34,11.71 C159.48,11.71 161.79,14.58 161.79,18.71 C161.79,23.14 159.2,25.59 155.34,25.59 M191.34,15.06 C185.779676,15.0043654 180.312004,16.4854814 175.54,19.34 L178.63,25.74 C180.63,24.82 184.95,23.21 188.63,23.21 C191.23,23.21 193.54,24.12 193.54,26.86 L193.54,29.25 C178,28.17 173.55,35 173.55,41.28 C173.55,47.43 178.76,52.59 185.6,52.59 C188.397652,52.5048992 191.120303,51.6652998 193.48,50.16 L193.48,51.75 L204.71,51.75 L204.71,26.81 C204.71,18.73 199.59,15.08 191.31,15.08 M193.9,43.88 C192.606082,44.7920655 191.063052,45.2842992 189.48,45.29 C186.67,45.29 184.78,43.67 184.78,41.07 C184.78,38.12 187.1,35.23 193.9,36.36 L193.9,43.88 Z M32.35,49.08 L34.57,41.23 C35.01,42.68 36.46,47.65 36.9,49.08 L40.38,49.08 L43.86,37.16 L40.52,37.16 L38.52,44.99 C38.12,43.54 36.91,38.61 36.52,37.16 L32.84,37.16 L30.79,44.94 C30.42,43.52 29.32,38.59 28.95,37.16 L25.37,37.16 L28.85,49.08 L32.35,49.08 Z M50.63,49.36 C52.3499411,49.3813564 54.0399811,48.9093946 55.5,48 L54.5,45.69 C53.5060017,46.2685653 52.3799755,46.5819242 51.23,46.6 L50.91,46.6 L50.67,46.6 L50.62,46.6 L50.43,46.6 L50.37,46.6 L50.18,46.6 L50.08,46.6 L49.95,46.6 L49.81,46.53 L49.76,46.53 L49.55,46.41 L49.55,46.41 C49.4015385,46.3112177 49.2611027,46.2008753 49.13,46.08 L49.13,46.08 L48.98,45.92 L48.98,45.86 L48.9,45.76 L48.78,45.58 L48.78,45.58 C48.5200331,45.1162 48.3663317,44.6004463 48.33,44.07 L56,44.07 L56,43.14 C56.0882672,41.5595299 55.5199418,40.0127646 54.429399,38.8654227 C53.3388562,37.7180808 51.8229129,37.0720217 50.24,37.079927 C46.93,37.079927 44.36,39.72 44.36,43.39 C44.36,47.06 46.79,49.56 50.66,49.56 M50.21,39.5 C51.21,39.5 52.06,40.32 52.21,41.91 L48.21,41.91 C48.35,40.32 49.21,39.5 50.21,39.5 M316.45,14.44 L316.45,15.92 L310.45,15.92 L310.45,23.58 L316.45,23.58 L316.45,51.75 L327.61,51.75 L327.61,23.58 L335.33,23.58 L335.33,15.92 L327.61,15.92 L327.61,14 C327.61,10.84 328.88,8.59 332.32,8.59 C333.434566,8.60305889 334.541877,8.7713433 335.61,9.09 L335.61,1.09 C333.874388,0.609593769 332.080848,0.370679378 330.28,0.379737481 C321.22,0.379737481 316.45,5.93 316.45,14.38 M18.66,49.36 C22.33,49.36 24.97,47.07 24.97,43.12 C24.97,39.17 22.33,36.88 18.66,36.88 C14.99,36.88 12.38,39.2 12.38,43.12 C12.38,47.04 15,49.36 18.66,49.36 M18.66,39.62 C20.27,39.62 20.97,41.09 20.97,43.14 C20.97,45.19 20.32,46.65 18.66,46.65 C17,46.65 16.35,45.11 16.35,43.14 C16.35,41.17 17.08,39.62 18.66,39.62 M293.86,15.08 C288.302798,15.0241323 282.838279,16.5053317 278.07,19.36 L281.16,25.76 C283.16,24.84 287.47,23.23 291.16,23.23 C293.76,23.23 296.08,24.14 296.08,26.88 L296.08,29.27 C280.6,28.17 276.15,34.98 276.15,41.27 C276.15,47.42 281.35,52.58 288.15,52.58 C290.935957,52.4896113 293.646729,51.6539338 296,50.16 L296,51.75 L307.23,51.75 L307.23,26.81 C307.23,18.73 302.1,15.08 293.82,15.08 M296,43.88 C294.702129,44.7916818 293.156062,45.2837707 291.57,45.29 C288.77,45.29 286.87,43.67 286.87,41.07 C286.87,38.12 289.19,35.23 296,36.36 L296,43.88 Z" id="Shape"></path>
        </g>
    </g>
</svg>