<svg xmlns="http://www.w3.org/2000/svg" viewBox="0 0 255.12 82.22"><path d="M215.9,35.5c-10,0-17.69,7.94-17.69,19,0,11.31,7.3,18.54,18.95,18.54,3.25,0,9.68-.58,14.63-4l-3.13-7a20.09991,20.09991,0,0,1-9.81,2.76h-.96a2.21476,2.21476,0,0,1-.72-.08h-.16l-.57-.1h-.2a2.21121,2.21121,0,0,1-.56-.15l-.3-.09-.39-.15a3.251,3.251,0,0,1-.43-.18l-.13-.06a5.71183,5.71183,0,0,1-.65-.35h0a7.2108,7.2108,0,0,1-1.26-1h0c-.16-.15-.3-.31-.44-.47l-.16-.18a3.54929,3.54929,0,0,1-.23-.31,5.073,5.073,0,0,1-.36-.54h0a10.81018,10.81018,0,0,1-1.36-4.54h23.28V53.8c0-10.5-7.34-18.2-17.31-18.2m-6,15.1c.42-4.78,2.88-7.23,6-7.23s5.55,2.45,6,7.23ZM84.05,17.36a5.07,5.07,0,0,0,3.24-1.26v1H91V0L87.29,1V5.51a4.15,4.15,0,0,0-2.36-.63c-3.59,0-5.76,2.92-5.76,6.5,0,3.17,1.72,6,4.88,6m1.63-9.91a3.28,3.28,0,0,1,1.61.45v6.23a3.31,3.31,0,0,1-1.73.52c-1.37,0-2.52-1.1-2.52-3.44s1.1-3.76,2.64-3.76M72.5,17.36A9.00007,9.00007,0,0,0,77.36,16l-1-2.31a6.70006,6.70006,0,0,1-3.26.91H71.86l-.14-.07h0l-.22-.12h0a2.35978,2.35978,0,0,1-.42-.33h0a1.07,1.07,0,0,1-.14-.16l-.06-.06-.07-.1-.12-.18h0a3.73993,3.73993,0,0,1-.45-1.51h7.74v-.93a5.74,5.74,0,0,0-5.75-6.06c-3.32,0-5.88,2.64-5.88,6.31s2.42,6.17,6.3,6.17M72.08,7.5c1,0,1.84.82,2,2.41h-4c.14-1.59,1-2.41,2-2.41m42,12.92h3.55l6-15.26H119.9l-2.57,7.12-3-7.12h-3.82l5,11.36ZM61.66,9.37a3.89,3.89,0,0,1,2.68-1,7.16006,7.16006,0,0,1,.94,0V4.88a4.35,4.35,0,0,0-3.81,2.46V5.16H57.92V17.08h3.74ZM247.81,58.42a7.31,7.31,0,1,0,7.31,7.31,7.31,7.31,0,0,0-7.31-7.31m0-8.27a7.31,7.31,0,1,0-7.31-7.31,7.31,7.31,0,0,0,7.31,7.31M110.68,10.51c0-3.48-2-5.63-4.69-5.63a4.77,4.77,0,0,0-3.34,1.36V0L98.91,1V16.82a16,16,0,0,0,4.09.54c4.34,0,7.68-2.32,7.68-6.85m-8-2.24a3.5599,3.5599,0,0,1,1.89-.65c1,0,2.19.74,2.19,3.22,0,2.66-1.33,3.83006-3,3.83006a3.00158,3.00158,0,0,1-1.07-.19006ZM3.83,11.19H6.19c3.1,0,5.43-1.94,5.43-5.23,0-2.85-1.75-5-5.43-5H0V17.08H3.83Zm0-7.43H5.77A2.09,2.09,0,0,1,7.91,6.1,2,2,0,0,1,5.77,8.39H3.83ZM95.49,36.34,87.77,57.75,78.9,36.34H67.4L82.55,70.48,77.82,82.22H88.51l18.14-45.88ZM118.2,46.42c0-1.69,1.69-2.74,4.5-2.74a21.83993,21.83993,0,0,1,8.28,2l3.16-7.26a28.16,28.16,0,0,0-12-2.88c-8.36,0-15.1,3.79-15.1,11.38,0,11.94,16.85,9.76,16.85,15,0,2-2,3-5.26,3a20.84,20.84,0,0,1-9.13-2.39l-3.58,7.24a29.55322,29.55322,0,0,0,13.69,3.30024c8.14,0,15.16-4.21024,15.16-11.94024,0-11.8-16.57-9.84-16.57-14.61M18.6,23.69H0V72.17H11.51V54.42H18.6c9.34,0,16.4-5.78,16.4-15.69,0-8.57-5.27-15-16.36-15m-1.3,22.3H11.51V32.13h5.83c4.14,0,6.45,2.87,6.45,7,0,4.43-2.59,6.88-6.45,6.88m36-10.53a30.19,30.19,0,0,0-15.8,4.28l3.09,6.4a27.16607,27.16607,0,0,1,10-2.53c2.6,0,4.91.91,4.91,3.65v2.39C40,48.59,35.55,55.42,35.55,61.7c0,6.15,5.21,11.31,12.05,11.31a15.53,15.53,0,0,0,7.88-2.43v1.59H66.71V47.23c0-8.08-5.12-11.73-13.4-11.73M55.9,64.3a7.72,7.72,0,0,1-4.42,1.41c-2.81,0-4.7-1.62-4.7-4.22,0-2.95,2.32-5.84,9.12-4.71ZM32.35,17.08l2.22-7.85c.44,1.45,1.89,6.42,2.33,7.85h3.48L43.86,5.16H40.52l-2,7.83c-.4-1.45-1.61-6.38-2-7.83H32.84l-2.05,7.78c-.37-1.42-1.47-6.35-1.84-7.78H25.37l3.48,11.92Zm18.28.28A9,9,0,0,0,55.5,16l-1-2.31a6.71,6.71,0,0,1-3.27.91H49.95l-.14-.07h-.05l-.21-.12h0a3.39019,3.39019,0,0,1-.42-.33h0l-.15-.16v-.06l-.08-.1-.12-.18h0a3.59,3.59,0,0,1-.45-1.51H56v-.93a5.74011,5.74011,0,0,0-5.76-6.06007c-3.31,0-5.88,2.64007-5.88,6.31007s2.43,6.17,6.3,6.17M50.21,7.5c1,0,1.85.82,2,2.41h-4c.14-1.59,1-2.41,2-2.41M178.45,34.86v1.48h-6V44h6V72.17h11.16V44h7.72V36.34h-7.72V34.42c0-3.16,1.27-5.41,4.71-5.41a11.9998,11.9998,0,0,1,3.29.5v-8a19.61017,19.61017,0,0,0-5.33-.71026c-9.06,0-13.83,5.55026-13.83,14.00026M18.66,17.36c3.67,0,6.31-2.29,6.31-6.24s-2.64-6.24-6.31-6.24-6.28,2.32-6.28,6.24,2.62,6.24,6.28,6.24m0-9.74c1.61,0,2.31,1.47,2.31,3.52s-.65,3.51-2.31,3.51-2.31-1.54-2.31-3.51.73-3.52,2.31-3.52M155.86,35.5a30.14993,30.14993,0,0,0-15.79,4.28l3.09,6.4a27.11215,27.11215,0,0,1,10-2.53c2.6,0,4.92.91,4.92,3.65v2.39c-15.48-1.1-19.93,5.71-19.93,12,0,6.15,5.2,11.31,12,11.31A15.5901,15.5901,0,0,0,158,70.58v1.59h11.23V47.23c0-8.08-5.13-11.73-13.41-11.73M158,64.3a7.76,7.76,0,0,1-4.43,1.41c-2.8,0-4.7-1.62-4.7-4.22,0-2.95,2.32-5.84,9.13-4.71Z" style="fill:#9b9b9b"/></svg>