<svg width="100" height="101" viewBox="0 0 100 101" fill="none" xmlns="http://www.w3.org/2000/svg">
<path fill-rule="evenodd" clip-rule="evenodd" d="M58.0182 0.171856L58.6093 2.64755C58.6769 2.93077 58.5021 3.21517 58.2189 3.28278C57.9357 3.35039 57.6513 3.17561 57.5837 2.8924L57.498 2.53346L57.2694 2.82316C57.089 3.05175 56.7575 3.09084 56.5289 2.91048C56.3003 2.73011 56.2612 2.3986 56.4416 2.17002L58.0182 0.171856ZM50.2538 11.2317C50.4824 11.4121 50.5215 11.7436 50.3411 11.9722L48.5359 14.26C48.3555 14.4886 48.024 14.5277 47.7954 14.3474C47.5668 14.167 47.5277 13.8355 47.7081 13.6069L49.5133 11.319C49.6937 11.0904 50.0252 11.0514 50.2538 11.2317ZM60.5786 13.2165C60.8618 13.1489 61.1462 13.3237 61.2139 13.6069L61.8906 16.4415C61.9582 16.7247 61.7834 17.0091 61.5002 17.0768C61.217 17.1444 60.9326 16.9696 60.865 16.6864L60.1883 13.8517C60.1206 13.5685 60.2954 13.2841 60.5786 13.2165ZM46.4741 16.3755C46.7027 16.5559 46.7417 16.8874 46.5614 17.116L44.7562 19.4039C44.5758 19.6324 44.2443 19.6715 44.0157 19.4912C43.7871 19.3108 43.748 18.9793 43.9284 18.7507L45.7336 16.4629C45.914 16.2343 46.2455 16.1952 46.4741 16.3755ZM42.2619 21.7139C42.4905 21.8943 42.5296 22.2258 42.3492 22.4543L40.544 24.7422C40.3636 24.9708 40.0321 25.0099 39.8035 24.8295C39.575 24.6492 39.5359 24.3177 39.7162 24.0891L41.5214 21.8012C41.7018 21.5726 42.0333 21.5335 42.2619 21.7139ZM2.37817 25.6703L4.86076 25.8441C5.15122 25.8645 5.3702 26.1164 5.34986 26.4069C5.32953 26.6973 5.07758 26.9163 4.78712 26.896L4.40434 26.8692L4.61887 27.2023C4.77652 27.4471 4.70586 27.7734 4.46106 27.931C4.21626 28.0887 3.89001 28.018 3.73236 27.7732L2.37817 25.6703ZM8.11851 26.6007C8.13884 26.3102 8.39079 26.0913 8.68125 26.1116L11.5466 26.3122C11.8371 26.3325 12.0561 26.5845 12.0357 26.8749C12.0154 27.1654 11.7634 27.3844 11.473 27.364L8.60761 27.1634C8.31715 27.1431 8.09817 26.8912 8.11851 26.6007ZM63.7366 26.4448C64.0199 26.3772 64.3043 26.552 64.3719 26.8352L65.0486 29.6699C65.1162 29.9531 64.9414 30.2375 64.6582 30.3051C64.375 30.3727 64.0906 30.1979 64.023 29.9147L63.3463 27.0801C63.2787 26.7968 63.4534 26.5124 63.7366 26.4448ZM14.8044 27.0688C14.8247 26.7783 15.0766 26.5593 15.3671 26.5796L18.2325 26.7802C18.5229 26.8006 18.7419 27.0525 18.7216 27.343C18.7012 27.6335 18.4493 27.8524 18.1588 27.8321L15.2935 27.6315C15.003 27.6112 14.784 27.3592 14.8044 27.0688ZM38.0497 27.0522C38.2783 27.2326 38.3174 27.5641 38.137 27.7927L37.0618 29.1554L35.351 29.0357C35.0606 29.0153 34.8416 28.7634 34.8619 28.4729C34.8823 28.1825 35.1342 27.9635 35.4247 27.9838L36.5793 28.0647L37.3093 27.1396C37.4896 26.911 37.8211 26.8719 38.0497 27.0522ZM21.4902 27.5368C21.5106 27.2464 21.7625 27.0274 22.053 27.0477L24.9183 27.2483C25.2088 27.2686 25.4278 27.5206 25.4074 27.8111C25.3871 28.1015 25.1352 28.3205 24.8447 28.3002L21.9793 28.0996C21.6889 28.0792 21.4699 27.8273 21.4902 27.5368ZM28.1761 28.0049C28.1964 27.7144 28.4484 27.4954 28.7388 27.5158L31.6042 27.7164C31.8946 27.7367 32.1136 27.9887 32.0933 28.2791C32.073 28.5696 31.821 28.7886 31.5306 28.7682L28.6652 28.5676C28.3747 28.5473 28.1557 28.2953 28.1761 28.0049ZM5.9818 30.2925C6.2266 30.1349 6.55285 30.2055 6.7105 30.4503L8.27921 32.8863C8.43686 33.1311 8.3662 33.4574 8.1214 33.615C7.8766 33.7727 7.55035 33.702 7.39271 33.4572L5.82399 31.0212C5.66634 30.7764 5.737 30.4502 5.9818 30.2925ZM65.3157 33.059C65.5989 32.9914 65.8833 33.1662 65.9509 33.4494L66.2245 34.5956L67.3062 35.0074C67.5783 35.111 67.7149 35.4156 67.6113 35.6877C67.5077 35.9598 67.2032 36.0964 66.931 35.9928L65.3284 35.3826L64.9253 33.6942C64.8577 33.411 65.0324 33.1266 65.3157 33.059ZM9.64214 35.9765C9.88694 35.8189 10.2132 35.8895 10.3708 36.1343L11.9396 38.5703C12.0972 38.8151 12.0265 39.1414 11.7817 39.299C11.5369 39.4567 11.2107 39.386 11.053 39.1412L9.48433 36.7052C9.32668 36.4604 9.39734 36.1342 9.64214 35.9765ZM70.2051 36.6752C70.3087 36.4031 70.6133 36.2665 70.8854 36.3701L73.5698 37.3922C73.8419 37.4958 73.9785 37.8003 73.8749 38.0724C73.7713 38.3446 73.4668 38.4812 73.1946 38.3776L70.5102 37.3555C70.2381 37.2519 70.1015 36.9474 70.2051 36.6752ZM76.4687 39.06C76.5723 38.7879 76.8769 38.6513 77.149 38.7549L79.8334 39.7769C80.1055 39.8805 80.2421 40.1851 80.1385 40.4572C80.0349 40.7293 79.7304 40.8659 79.4583 40.7623L76.7738 39.7403C76.5017 39.6367 76.3651 39.3321 76.4687 39.06ZM82.7323 41.4447C82.8359 41.1726 83.1405 41.036 83.4126 41.1396L86.097 42.1616C86.3691 42.2652 86.5058 42.5698 86.4022 42.8419C86.2986 43.114 85.994 43.2506 85.7219 43.147L83.0375 42.125C82.7653 42.0214 82.6287 41.7168 82.7323 41.4447ZM13.3025 41.6605C13.5473 41.5029 13.8735 41.5736 14.0312 41.8184L15.5999 44.2544C15.7575 44.4992 15.6869 44.8254 15.4421 44.9831C15.1973 45.1407 14.871 45.0701 14.7134 44.8252L13.1447 42.3892C12.987 42.1444 13.0577 41.8182 13.3025 41.6605ZM88.9959 43.8295C89.0995 43.5573 89.4041 43.4207 89.6762 43.5243L92.3606 44.5464C92.6328 44.65 92.7694 44.9545 92.6658 45.2267C92.5622 45.4988 92.2576 45.6354 91.9855 45.5318L89.3011 44.5098C89.0289 44.4062 88.8923 44.1016 88.9959 43.8295ZM95.2595 46.2142C95.3632 45.9421 95.6677 45.8055 95.9398 45.9091L97.2821 46.4201C97.5542 46.5237 97.6908 46.8283 97.5872 47.1004C97.4836 47.3725 97.179 47.5091 96.9069 47.4055L95.5647 46.8945C95.2925 46.7909 95.156 46.4863 95.2595 46.2142ZM16.9628 47.3446C17.2076 47.1869 17.5339 47.2576 17.6915 47.5024L19.2602 49.9384C19.4179 50.1832 19.3472 50.5094 19.1024 50.6671C18.8576 50.8247 18.5314 50.7541 18.3737 50.5093L16.805 48.0733C16.6474 47.8285 16.718 47.5022 16.9628 47.3446ZM20.6232 53.0286C20.868 52.8709 21.1942 52.9416 21.3519 53.1864L22.2841 54.634L21.6348 56.2425C21.5258 56.5125 21.2185 56.643 20.9485 56.5341C20.6785 56.4251 20.548 56.1178 20.657 55.8478L21.1019 54.7457L20.4654 53.7573C20.3077 53.5125 20.3784 53.1862 20.6232 53.0286ZM19.8843 59.1705C20.1543 59.2795 20.2848 59.5867 20.1759 59.8567L19.0817 62.5674C18.9727 62.8374 18.6655 62.9679 18.3955 62.8589C18.1255 62.75 17.9949 62.4427 18.1039 62.1727L19.1981 59.462C19.3071 59.192 19.6143 59.0615 19.8843 59.1705ZM17.3312 65.4954C17.6012 65.6044 17.7318 65.9116 17.6228 66.1816L16.5286 68.8923C16.4196 69.1623 16.1124 69.2928 15.8424 69.1838C15.5724 69.0748 15.4418 68.7676 15.5508 68.4976L16.645 65.7869C16.754 65.5169 17.0612 65.3864 17.3312 65.4954ZM14.7782 71.8203C15.0482 71.9293 15.1787 72.2365 15.0697 72.5065L13.9755 75.2172C13.8665 75.4872 13.5593 75.6177 13.2893 75.5087C13.0193 75.3997 12.8888 75.0925 12.9977 74.8225L14.0919 72.1118C14.2009 71.8418 14.5082 71.7113 14.7782 71.8203ZM12.2251 78.1452C12.4951 78.2542 12.6256 78.5614 12.5166 78.8314L11.4224 81.542C11.3134 81.8121 11.0062 81.9426 10.7362 81.8336C10.4662 81.7246 10.3357 81.4174 10.4447 81.1474L11.5388 78.4367C11.6478 78.1667 11.9551 78.0362 12.2251 78.1452ZM9.67199 84.47C9.94199 84.579 10.0725 84.8863 9.96353 85.1563L9.41644 86.5116C9.30745 86.7816 9.00022 86.9121 8.73022 86.8031C8.46021 86.6942 8.32968 86.3869 8.43867 86.1169L8.98576 84.7616C9.09475 84.4916 9.40199 84.3611 9.67199 84.47Z" fill="black" fill-opacity="0.16"/>
<path d="M82.464 40.7386L79.5173 45.8426L25.3857 14.5897L28.3325 9.48577C29.4972 7.46848 32.0767 6.77731 34.094 7.94199L80.9202 34.9771C82.9375 36.1418 83.6287 38.7213 82.464 40.7386Z" fill="#185D8A"/>
<path d="M82.464 40.7386L79.5172 45.8425L57.2287 32.9742C57.2287 32.9742 57.3509 26.3264 56.7112 21L80.9302 34.9829C82.9475 36.1476 83.6287 38.7213 82.464 40.7386Z" fill="#33BFC5"/>
<path fill-rule="evenodd" clip-rule="evenodd" d="M54.0342 11.6555C54.8428 13.8396 56.2944 16.2334 57.6366 18.2029C58.1669 15.5679 58.6133 12.7773 58.5819 10.4901C58.56 8.88908 58.302 7.76959 57.8762 7.12795C57.6823 6.83574 57.4633 6.6565 57.207 6.55062C56.9417 6.44098 56.5459 6.37326 55.9505 6.45516C55.0822 6.5746 54.5327 6.81007 54.1877 7.06158C53.8591 7.30104 53.6587 7.59529 53.5434 7.96288C53.2879 8.77708 53.4316 10.0276 54.0342 11.6555ZM55.5913 3.84369C56.5375 3.71354 57.4229 3.78761 58.2137 4.11433C59.0135 4.4448 59.6254 4.99648 60.0726 5.67044C60.9291 6.96114 61.1939 8.71505 61.2178 10.4541C61.253 13.0274 60.7554 16.085 60.2013 18.8232C62.2955 16.9743 64.6946 15.0147 66.9407 13.7586C68.4586 12.9097 70.1099 12.2621 71.6559 12.3585C72.4632 12.4088 73.247 12.6629 73.9331 13.1904C74.6114 13.7118 75.1183 14.4416 75.4786 15.3261C75.9236 16.4182 76.1186 17.4574 76.0149 18.4302C75.9089 19.4234 75.4996 20.2645 74.8763 20.9428C73.6858 22.2384 71.7927 22.8619 69.9354 23.1789C66.1583 23.8236 61.3765 23.3758 58.7659 23.0622C58.4604 23.0255 58.1844 22.8846 57.9781 22.6725C57.6918 22.5997 57.4322 22.4313 57.248 22.1854C55.6711 20.0814 52.8924 16.1642 51.5621 12.5707C50.908 10.8037 50.5015 8.85255 51.0282 7.17372C51.304 6.29479 51.8278 5.51968 52.6349 4.93137C53.4255 4.35511 54.423 4.00441 55.5913 3.84369ZM69.4919 20.5804C67.1962 20.9723 64.3973 20.912 62.0206 20.7343C64.0374 18.9576 66.2309 17.1758 68.2273 16.0593C69.6248 15.2778 70.7234 14.9415 71.4919 14.9894C71.842 15.0113 72.1067 15.1113 72.3265 15.2803C72.5541 15.4553 72.8106 15.7641 73.0374 16.3207C73.3681 17.1324 73.439 17.726 73.3937 18.1506C73.3506 18.5548 73.1959 18.8755 72.9353 19.1592C72.3579 19.7876 71.203 20.2884 69.4919 20.5804Z" fill="#185D8A"/>
<path d="M57.0213 35.6873C59.3528 36.9397 60.3302 40.5029 59.0346 43.7649C57.7389 47.0269 55.064 48.6943 52.0391 48.5708C51.1239 48.5335 49.7111 47.9122 49.2287 47.7206C47.8388 46.0994 48.7987 43.0607 49.9519 40.1573C51.1988 37.0182 51.4181 34.0252 54.4085 34.3809C55.4175 34.6641 56.3874 35.3468 57.0213 35.6873Z" fill="#FFAD4B"/>
<path d="M54.7428 34.4441C57.7654 35.6446 59.0269 39.6111 57.5603 43.3033C56.0938 46.9956 52.4546 49.0155 49.432 47.815C46.4094 46.6144 45.148 42.648 46.6145 38.9557C48.081 35.2635 51.7202 33.2435 54.7428 34.4441Z" fill="#FFD095"/>
<path d="M77.78 46.9434V81.3321C77.78 83.6615 75.8917 85.5498 73.5623 85.5498H25.0072C22.6779 85.5498 20.7896 83.6615 20.7896 81.3321V46.9434H77.78Z" fill="#185D8A"/>
<path d="M77.7792 46.9434V81.3321C77.7792 83.6615 75.8998 85.5498 73.5705 85.5498H49.9805C42.9198 69.4638 64.9116 63.0294 54.7999 46.9434C60.7747 46.9434 66.6236 46.9433 77.7792 46.9434Z" fill="#33BFC5"/>
<path fill-rule="evenodd" clip-rule="evenodd" d="M97.5392 46.6305C97.6951 46.8764 97.6221 47.2022 97.3762 47.3581L96.1526 48.1337C95.9067 48.2896 95.581 48.2166 95.4251 47.9707C95.2692 47.7248 95.3421 47.399 95.5881 47.2432L96.8116 46.4675C97.0575 46.3116 97.3833 46.3846 97.5392 46.6305ZM93.0528 49.4746C93.2087 49.7205 93.1357 50.0462 92.8898 50.2021L90.4426 51.7534C90.1967 51.9093 89.871 51.8363 89.7151 51.5904C89.5592 51.3445 89.6322 51.0188 89.8781 50.8629L92.3252 49.3116C92.5711 49.1557 92.8969 49.2286 93.0528 49.4746ZM87.3428 53.0943C87.4987 53.3402 87.4257 53.6659 87.1798 53.8218L84.7327 55.3731C84.4867 55.529 84.161 55.4561 84.0051 55.2101C83.8492 54.9642 83.9222 54.6385 84.1681 54.4826L86.6152 52.9313C86.8612 52.7754 87.1869 52.8484 87.3428 53.0943ZM81.6328 56.714C81.7887 56.9599 81.7157 57.2856 81.4698 57.4415L79.0227 58.9929C78.7768 59.1487 78.451 59.0758 78.2951 58.8298C78.1392 58.5839 78.2122 58.2582 78.4581 58.1023L80.9053 56.551C81.1512 56.3951 81.4769 56.4681 81.6328 56.714ZM75.9228 60.3337C76.0787 60.5796 76.0058 60.9054 75.7598 61.0613L73.3127 62.6126C73.0668 62.7685 72.741 62.6955 72.5852 62.4496C72.4293 62.2036 72.5022 61.8779 72.7482 61.722L75.1953 60.1707C75.4412 60.0148 75.7669 60.0878 75.9228 60.3337ZM70.2129 63.9534C70.3688 64.1993 70.2958 64.5251 70.0499 64.681L69.0569 65.3104L68.9975 66.4975C68.9829 66.7883 68.7354 67.0122 68.4446 66.9977C68.1538 66.9831 67.9298 66.7355 67.9444 66.4447L68.0311 64.7123L69.4853 63.7904C69.7312 63.6345 70.057 63.7075 70.2129 63.9534ZM68.3024 69.8372C68.5932 69.8518 68.8172 70.0993 68.8026 70.3901L68.6564 73.3097C68.6419 73.6005 68.3943 73.8244 68.1035 73.8099C67.8127 73.7953 67.5888 73.5477 67.6033 73.2569L67.7495 70.3374C67.7641 70.0466 68.0116 69.8227 68.3024 69.8372ZM41.4276 76.603L42.7366 77.7247C42.9577 77.9141 42.9833 78.247 42.7939 78.4681C42.6044 78.6892 42.2716 78.7148 42.0505 78.5253L41.1703 77.7711L40.0547 78.0857C39.7744 78.1647 39.4832 78.0015 39.4042 77.7213C39.3251 77.441 39.4883 77.1498 39.7685 77.0708L41.4276 76.603ZM67.9614 76.6494C68.2522 76.664 68.4761 76.9115 68.4616 77.2023L68.3154 80.1219C68.3008 80.4127 68.0533 80.6366 67.7625 80.6221C67.4717 80.6075 67.2477 80.3599 67.2623 80.0691L67.4085 77.1496C67.423 76.8588 67.6706 76.6349 67.9614 76.6494ZM36.7194 78.4783C36.7984 78.7585 36.6352 79.0497 36.355 79.1288L33.5803 79.9111C33.3 79.9901 33.0088 79.827 32.9298 79.5467C32.8508 79.2665 33.0139 78.9752 33.2941 78.8962L36.0689 78.1139C36.3491 78.0349 36.6403 78.198 36.7194 78.4783ZM30.245 80.3037C30.324 80.5839 30.1609 80.8752 29.8806 80.9542L27.1059 81.7365C26.8256 81.8155 26.5344 81.6524 26.4554 81.3722C26.3764 81.0919 26.5395 80.8007 26.8197 80.7217L29.5945 79.9393C29.8747 79.8603 30.166 80.0235 30.245 80.3037ZM44.912 80.2831C45.1015 80.062 45.4343 80.0364 45.6554 80.2258L47.8445 82.1017C48.0656 82.2912 48.0913 82.624 47.9018 82.8451C47.7124 83.0662 47.3795 83.0919 47.1584 82.9024L44.9693 81.0265C44.7482 80.8371 44.7226 80.5042 44.912 80.2831ZM23.7706 82.1291C23.8496 82.4094 23.6865 82.7006 23.4062 82.7796L20.6315 83.562C20.3512 83.641 20.06 83.4778 19.981 83.1976C19.902 82.9174 20.0651 82.6261 20.3453 82.5471L23.1201 81.7648C23.4003 81.6858 23.6916 81.8489 23.7706 82.1291ZM67.6203 83.4616C67.9111 83.4762 68.1351 83.7237 68.1205 84.0145L67.9743 86.9341C67.9598 87.2249 67.7122 87.4488 67.4214 87.4343C67.1306 87.4197 66.9067 87.1721 66.9212 86.8813L67.0674 83.9618C67.082 83.671 67.3295 83.4471 67.6203 83.4616ZM17.2962 83.9546C17.3752 84.2348 17.2121 84.526 16.9318 84.6051L14.1571 85.3874C13.8768 85.4664 13.5856 85.3033 13.5066 85.023C13.4276 84.7428 13.5907 84.4515 13.871 84.3725L16.6457 83.5902C16.9259 83.5112 17.2172 83.6743 17.2962 83.9546ZM50.02 84.6602C50.2094 84.4391 50.5423 84.4134 50.7634 84.6029L52.9525 86.4788C53.1736 86.6682 53.1992 87.0011 53.0098 87.2222C52.8203 87.4433 52.4875 87.4689 52.2664 87.2794L50.0773 85.4036C49.8562 85.2141 49.8305 84.8813 50.02 84.6602ZM10.8218 85.78C10.9008 86.0602 10.7377 86.3515 10.4574 86.4305L9.07007 86.8217C8.78983 86.9007 8.49859 86.7375 8.41958 86.4573C8.34056 86.1771 8.50369 85.8858 8.78394 85.8068L10.1713 85.4156C10.4516 85.3366 10.7428 85.4998 10.8218 85.78ZM55.1279 89.0372C55.3174 88.8161 55.6502 88.7905 55.8713 88.98L58.0605 90.8558C58.2816 91.0453 58.3072 91.3781 58.1177 91.5992C57.9283 91.8203 57.5955 91.846 57.3744 91.6565L55.1852 89.7806C54.9641 89.5912 54.9385 89.2583 55.1279 89.0372ZM67.2793 90.2738C67.5701 90.2884 67.794 90.5359 67.7795 90.8267L67.6333 93.7463C67.6187 94.0371 67.3712 94.261 67.0804 94.2464C66.7896 94.2319 66.5656 93.9843 66.5802 93.6935L66.7264 90.774C66.7409 90.4832 66.9885 90.2593 67.2793 90.2738ZM60.2359 93.4143C60.4254 93.1932 60.7582 93.1675 60.9793 93.357L63.1684 95.2329C63.3895 95.4223 63.4152 95.7552 63.2257 95.9763C63.0362 96.1974 62.7034 96.223 62.4823 96.0336L60.2932 94.1577C60.0721 93.9682 60.0465 93.6354 60.2359 93.4143ZM66.9382 97.086C67.229 97.1006 67.453 97.3481 67.4384 97.6389L67.3116 100.172L65.4012 98.5347C65.1801 98.3453 65.1544 98.0124 65.3439 97.7914C65.5333 97.5702 65.8662 97.5446 66.0873 97.7341L66.3659 97.9729L66.3853 97.5862C66.3999 97.2954 66.6474 97.0715 66.9382 97.086Z" fill="black" fill-opacity="0.16"/>
<path d="M22.2075 86.0923C23.8644 86.0923 25.2075 84.7491 25.2075 83.0923C25.2075 81.4354 23.8644 80.0923 22.2075 80.0923C20.5507 80.0923 19.2075 81.4354 19.2075 83.0923C19.2075 84.7491 20.5507 86.0923 22.2075 86.0923Z" fill="#811E68"/>
<path d="M77.4536 65.5935C80.7673 65.5935 83.4536 62.9072 83.4536 59.5935C83.4536 56.2798 80.7673 53.5935 77.4536 53.5935C74.1399 53.5935 71.4536 56.2798 71.4536 59.5935C71.4536 62.9072 74.1399 65.5935 77.4536 65.5935Z" fill="#811E68"/>
<path d="M29.8678 42.9905C27.2067 44.42 26.0911 48.4867 27.5699 52.2098C29.0487 55.9329 32.1016 57.836 35.5541 57.6951C36.5988 57.6524 38.2112 56.9434 38.7617 56.7247C40.3481 54.8744 39.2525 51.4061 37.9363 48.0924C36.5132 44.5095 36.2629 41.0934 32.8499 41.4994C31.6982 41.8227 30.5913 42.6019 29.8678 42.9905Z" fill="#FF9C25"/>
<path d="M32.4676 41.5712C29.0178 42.9414 27.578 47.4685 29.2519 51.6826C30.9257 55.8968 35.0793 58.2022 38.5291 56.832C41.9789 55.4617 43.4187 50.9347 41.7448 46.7205C40.071 42.5063 35.9174 40.2009 32.4676 41.5712Z" fill="#FFBF70"/>
<path d="M10.0046 29.3047C11.6615 29.3047 13.0046 27.9615 13.0046 26.3047C13.0046 24.6478 11.6615 23.3047 10.0046 23.3047C8.34778 23.3047 7.00464 24.6478 7.00464 26.3047C7.00464 27.9615 8.34778 29.3047 10.0046 29.3047Z" fill="#811E68"/>
<path d="M32.2961 25.7068C30.1006 26.8861 29.1802 30.2413 30.4003 33.3129C31.6203 36.3846 34.139 37.9547 36.9874 37.8384C37.8493 37.8032 39.1795 37.2182 39.6338 37.0378C40.9426 35.5112 40.0387 32.6498 38.9528 29.9159C37.7787 26.96 37.5722 24.1417 34.7564 24.4766C33.8062 24.7433 32.893 25.3862 32.2961 25.7068Z" fill="#FFBF70"/>
<path d="M34.4413 24.5362C31.5951 25.6667 30.4073 29.4016 31.7883 32.8784C33.1692 36.3551 36.596 38.2572 39.4422 37.1267C42.2884 35.9962 43.4762 32.2613 42.0953 28.7845C40.7143 25.3077 37.2875 23.4057 34.4413 24.5362Z" fill="#FFE1BB"/>
</svg>
