<svg id="Layer_1" data-name="Layer 1" xmlns="http://www.w3.org/2000/svg" viewBox="0 0 860.13 96.49"><defs><style>.cls-1{fill:#00b67a;}.cls-2{fill:#dcdce6;}.cls-3{fill:#fff;}.cls-4{fill:#191919;}.cls-5{fill:#005128;}.cls-6{fill:#73cf11;}</style></defs><g id="Trustpilot_ratings_4halfstar-RGB" data-name="Trustpilot ratings 4halfstar-RGB"><rect id="Rectangle-path" class="cls-1" x="0.06" y="0.33" width="96" height="96"/><rect class="cls-1" x="104.06" y="0.33" width="96" height="96"/><rect class="cls-1" x="208.06" y="0.33" width="96" height="96"/><rect class="cls-1" x="312.06" y="0.33" width="96" height="96"/><g id="Half"><rect class="cls-2" x="464.06" y="0.33" width="48" height="96"/><rect class="cls-1" x="416.06" y="0.33" width="48" height="96"/></g><path id="Shape" class="cls-3" d="M48.34,64.3l14.6-3.7L69,79.4ZM81.94,40H56.24l-7.9-24.2L40.44,40H14.74l20.8,15-7.9,24.2,20.8-15L61.24,55Z" transform="translate(0.06 0.33)"/><path class="cls-3" d="M152.34,64.3l14.6-3.7L173,79.4ZM185.94,40h-25.7l-7.9-24.2L144.44,40h-25.7l20.8,15-7.9,24.2,20.8-15,12.8-9.2,20.7-15Z" transform="translate(0.06 0.33)"/><path class="cls-3" d="M256.34,64.3l14.6-3.7L277,79.4ZM289.94,40h-25.7l-7.9-24.2L248.44,40h-25.7l20.8,15-7.9,24.2,20.8-15,12.8-9.2Z" transform="translate(0.06 0.33)"/><path class="cls-3" d="M360.34,64.3l14.6-3.7L381,79.4ZM393.94,40h-25.7l-7.9-24.2L352.44,40h-25.7l20.8,15-7.9,24.2,20.8-15,12.8-9.2,20.7-15Z" transform="translate(0.06 0.33)"/><path class="cls-3" d="M464.34,64.3l14.6-3.7L485,79.4ZM497.94,40h-25.7l-7.9-24.2L456.44,40h-25.7l20.8,15-7.9,24.2,20.8-15,12.8-9.2,20.7-15Z" transform="translate(0.06 0.33)"/></g><g id="Type"><path class="cls-4" d="M619.57,38.51h33v6h-13V79h-7.19V44.55H619.54v-6Zm31.64,11.22h6v5.75h0a6.81,6.81,0,0,1,1.13-2.33A10.71,10.71,0,0,1,663,49.56a8,8,0,0,1,2.94-.58,10.65,10.65,0,0,1,1.6.06,8.49,8.49,0,0,0,.9.12v6.27c-.47-.09-.93-.15-1.43-.2a11.28,11.28,0,0,0-1.42-.09,7.73,7.73,0,0,0-3.14.66,7.14,7.14,0,0,0-2.56,1.93,9.59,9.59,0,0,0-1.74,3.16,13.32,13.32,0,0,0-.64,4.34V79.36h-6.33V49.73Zm47.14,29.63H692V75h-.11a9,9,0,0,1-3.57,3.6A9.78,9.78,0,0,1,683.5,80c-3.89,0-6.72-1-8.44-2.9s-2.6-4.87-2.6-8.78V49.44h6.62V67.77c-.11,2.58.38,4.42,1.38,5.49a5.42,5.42,0,0,0,4.17,1.61,8,8,0,0,0,3.43-.63,5.84,5.84,0,0,0,2.21-1.7A6.35,6.35,0,0,0,691.51,70a24.63,24.63,0,0,0,.51-3.19V49.73h6.33Zm11.22-9.55a5,5,0,0,0,2.15,4,8.74,8.74,0,0,0,4.5,1.14,18,18,0,0,0,2.07-.14,9,9,0,0,0,2.18-.54,4.09,4.09,0,0,0,1.69-1.18,2.84,2.84,0,0,0,.61-2,2.79,2.79,0,0,0-.92-2,6.52,6.52,0,0,0-2.18-1.29,23.78,23.78,0,0,0-3-.83c-1.15-.23-2.3-.49-3.48-.75a33.17,33.17,0,0,1-3.5-1,10.56,10.56,0,0,1-3-1.55,6.65,6.65,0,0,1-2.12-2.47,7.65,7.65,0,0,1-.81-3.73,6.8,6.8,0,0,1,1.18-4,9.07,9.07,0,0,1,3-2.61,13.23,13.23,0,0,1,4-1.4A24.16,24.16,0,0,1,716,49a20,20,0,0,1,4.37.48,11.48,11.48,0,0,1,3.75,1.58,9.46,9.46,0,0,1,2.79,2.81,9.92,9.92,0,0,1,1.4,4.19h-6.77a4,4,0,0,0-2.1-3.06,8.65,8.65,0,0,0-3.85-.81,11.07,11.07,0,0,0-1.63.12,8.4,8.4,0,0,0-1.78.43,3.67,3.67,0,0,0-1.41.92,2.21,2.21,0,0,0-.57,1.57,2.49,2.49,0,0,0,.83,1.93,7.19,7.19,0,0,0,2.15,1.23,20.83,20.83,0,0,0,3,.83c1.15.23,2.33.49,3.53.75a29.48,29.48,0,0,1,3.48,1,10.82,10.82,0,0,1,3,1.55A7.75,7.75,0,0,1,728.34,67a7.47,7.47,0,0,1,.83,3.65,7.9,7.9,0,0,1-1.2,4.44,9.56,9.56,0,0,1-3.1,3,14.69,14.69,0,0,1-4.25,1.66,21.18,21.18,0,0,1-4.62.52,19.5,19.5,0,0,1-5.16-.63,12.52,12.52,0,0,1-4.11-1.9A9.48,9.48,0,0,1,704,74.52a10.37,10.37,0,0,1-1-4.65h6.54ZM730.8,49.73h4.94V40.81h6.62v8.92h5.75v4.89h-5.75V70.38a17.73,17.73,0,0,0,.09,1.79,2.93,2.93,0,0,0,.41,1.26,1.81,1.81,0,0,0,1,.78,5,5,0,0,0,1.76.26H747a8.4,8.4,0,0,0,1.41-.2v5c-.74.09-1.47.15-2.15.24a15.41,15.41,0,0,1-2.15.12,14.79,14.79,0,0,1-4.24-.5,5.58,5.58,0,0,1-2.5-1.47,5.09,5.09,0,0,1-1.23-2.42,18.47,18.47,0,0,1-.39-3.32V54.62h-4.89V49.73Zm21.91,0H759v4h0A7.86,7.86,0,0,1,762.9,50a12.52,12.52,0,0,1,5.32-1.12,13.93,13.93,0,0,1,6.07,1.23,11.92,11.92,0,0,1,4.31,3.37,14.57,14.57,0,0,1,2.56,5,21.74,21.74,0,0,1,.09,11.86,15.66,15.66,0,0,1-2.33,4.94,11.5,11.5,0,0,1-4,3.43A11.74,11.74,0,0,1,769.25,80a16,16,0,0,1-2.84-.26,12.55,12.55,0,0,1-2.74-.83,10.24,10.24,0,0,1-2.41-1.47,8.32,8.32,0,0,1-1.87-2.1h-.09V90h-6.62Zm22.82,14.73a15.06,15.06,0,0,0-.52-3.89,10.57,10.57,0,0,0-1.56-3.33,7.83,7.83,0,0,0-2.56-2.33,7,7,0,0,0-3.53-.89,7.18,7.18,0,0,0-6.19,2.84,12.63,12.63,0,0,0-2.07,7.6,14.5,14.5,0,0,0,.55,4.14,9.2,9.2,0,0,0,1.64,3.28A7.72,7.72,0,0,0,763.88,74a8.12,8.12,0,0,0,7.27-.12,7.82,7.82,0,0,0,2.53-2.36,9.78,9.78,0,0,0,1.44-3.31,18,18,0,0,0,.41-3.79Zm11.41-25.95h6.62v6h-6.62Zm0,11.22h6.62V79.36h-6.62Zm12.37-11.22h6.62V79.36h-6.62ZM825.75,80a16,16,0,0,1-6.3-1.18,13.21,13.21,0,0,1-7.6-8.14,19.1,19.1,0,0,1-1-6.27,18.74,18.74,0,0,1,1-6.21,14,14,0,0,1,2.91-4.92,13.21,13.21,0,0,1,4.69-3.22,17.42,17.42,0,0,1,12.59,0,13.66,13.66,0,0,1,4.69,3.22,14,14,0,0,1,2.91,4.92,18.74,18.74,0,0,1,1,6.21,19.1,19.1,0,0,1-1,6.27,14,14,0,0,1-2.91,4.92A13.21,13.21,0,0,1,832,78.82,16.16,16.16,0,0,1,825.75,80Zm0-5.15a7.59,7.59,0,0,0,3.76-.92,8,8,0,0,0,2.62-2.39,10.73,10.73,0,0,0,1.53-3.33,15.16,15.16,0,0,0,0-7.57,9.9,9.9,0,0,0-1.53-3.33A7.8,7.8,0,0,0,829.51,55a7.79,7.79,0,0,0-10.15,2.36,10.26,10.26,0,0,0-1.52,3.33,14.94,14.94,0,0,0,0,7.57,10.06,10.06,0,0,0,1.52,3.33A8,8,0,0,0,822,73.93a7.28,7.28,0,0,0,3.77.91Zm16.93-25.11h4.66V40.81H854v8.92h5.75v4.89H854V70.38a17.73,17.73,0,0,0,.09,1.79,3,3,0,0,0,.41,1.26,1.81,1.81,0,0,0,1,.78,5,5,0,0,0,1.76.26h1.4a8.4,8.4,0,0,0,1.41-.2v4.94c-.72.09-1.44.15-2.1.23a14.79,14.79,0,0,1-2.1.12,14.45,14.45,0,0,1-4.14-.49,5.36,5.36,0,0,1-2.45-1.44,5,5,0,0,1-1.2-2.36A17,17,0,0,1,847.7,72V54.62h-4.89V49.73Z" transform="translate(0.06 0.33)"/></g><g id="Star"><polygon class="cls-1" points="612.09 38.85 582.3 38.85 573.09 10.48 563.86 38.85 534.06 38.82 558.19 56.36 548.96 84.69 573.09 67.18 597.19 84.69 587.99 56.36 612.09 38.85 612.09 38.85 612.09 38.85"/><polygon class="cls-5" points="590.06 62.69 587.99 56.28 573.09 67.09 590.06 62.69"/></g><g id="Trustpilot_ratings_4star-RGB" data-name="Trustpilot ratings 4star-RGB"><rect id="Rectangle-path-2" data-name="Rectangle-path" class="cls-6" width="95.99" height="96.49"/><rect id="Rectangle-path-3" data-name="Rectangle-path" class="cls-6" x="103.99" width="95.99" height="96.49"/><rect id="Rectangle-path-4" data-name="Rectangle-path" class="cls-6" x="207.98" width="95.99" height="96.49"/><rect id="Rectangle-path-5" data-name="Rectangle-path" class="cls-6" x="311.97" width="95.99" height="96.49"/><rect id="Rectangle-path-6" data-name="Rectangle-path" class="cls-2" x="415.96" width="95.99" height="96.49"/><path id="Shape-2" data-name="Shape" class="cls-3" d="M47.93,64.7,62.53,61l6.1,18.9Zm33.6-24.42H55.83L47.93,16,40,40.28H14.33l20.8,15.07-7.9,24.33L48,64.6l12.8-9.25,20.7-15.07Z" transform="translate(0.06 0.33)"/><path id="Shape-3" data-name="Shape" class="cls-3" d="M151.92,64.7,166.52,61l6.1,18.9Zm33.6-24.42h-25.7L151.92,16,144,40.28h-25.7l20.8,15.07-7.9,24.33L152,64.6l12.8-9.25,20.7-15.07Z" transform="translate(0.06 0.33)"/><path id="Shape-4" data-name="Shape" class="cls-3" d="M255.91,64.7,270.51,61l6.1,18.9Zm33.6-24.42h-25.7L255.91,16,248,40.28h-25.7l20.8,15.07-7.9,24.33L256,64.6l12.8-9.25,20.7-15.07Z" transform="translate(0.06 0.33)"/><path id="Shape-5" data-name="Shape" class="cls-3" d="M359.9,64.7,374.5,61l6.1,18.9Zm33.6-24.42H367.8L359.9,16,352,40.28H326.3l20.8,15.07-7.9,24.33L360,64.6l12.8-9.25,20.7-15.07Z" transform="translate(0.06 0.33)"/><path id="Shape-6" data-name="Shape" class="cls-3" d="M463.89,64.7,478.49,61l6.1,18.9Zm33.6-24.42h-25.7L463.89,16,456,40.28h-25.7l20.8,15.07-7.9,24.33L464,64.6l12.8-9.25,20.7-15.07Z" transform="translate(0.06 0.33)"/></g></svg>